PathFileType	4	(X/Y/Z)	C:\Users\86182\Documents\cortex\Trimmed_M3_L6.trc
DataRate	CameraRate	NumFrames	NumMarkers	Units	OrigDataRate	OrigDataStartFrame	OrigNumFrames
100.00	100.00	       98	2	mm	100.00	541	       901
Frame#	Time	gripper			box			
		X1	Y1	Z1	X2	Y2	Z2	

541	5.400	273.44754	149.82399	292.83578	273.79138	149.54086	146.65610	
542	5.410	273.45001	149.82002	292.84006	273.77283	149.52968	146.65822	
543	5.420	273.48453	149.81627	292.82285	273.76907	149.52740	146.65863	
544	5.430	273.46439	149.81953	292.83130	273.78772	149.53865	146.65652	
545	5.440	273.44556	149.82033	292.84259	273.76535	149.52516	146.65906	
546	5.450	273.42532	149.82266	292.85248	273.80927	149.54027	146.65350	
547	5.460	273.41077	149.82701	292.85562	273.76749	149.52415	146.65868	
548	5.470	273.42081	149.82393	292.85358	273.77328	149.52539	146.65790	
549	5.480	273.41525	149.82669	292.85312	273.77328	149.52539	146.65790	
550	5.490	273.46356	149.81718	292.83536	273.79868	149.52937	146.65445	
551	5.500	273.44992	149.81760	292.84378	273.80463	149.54654	146.65448	
552	5.510	273.42087	149.82678	292.84927	273.79822	149.53360	146.65474	
553	5.520	273.47894	149.81712	292.82529	273.79657	149.53036	146.65480	
554	5.530	273.49393	149.81273	292.82193	273.80655	149.52962	146.65332	
555	5.540	273.45328	149.82030	292.83749	273.76907	149.52740	146.65863	
556	5.550	273.47116	149.81812	292.82892	273.81552	149.53728	146.65244	
557	5.560	273.49170	149.81287	292.82318	273.80884	149.54451	146.65376	
558	5.570	273.49829	149.81244	292.81946	273.82751	149.53554	146.65059	
559	5.580	273.47806	149.81573	292.82794	273.77283	149.52968	146.65822	
560	5.590	273.46710	149.81549	292.83557	273.78024	149.53413	146.65738	
561	5.600	273.42322	149.82103	292.85632	273.78400	149.53641	146.65695	
562	5.610	273.43536	149.82437	292.84329	273.80988	149.55199	146.65404	
563	5.620	273.40152	149.82500	292.86478	273.79578	149.51866	146.65431	
564	5.630	273.44324	149.82240	292.84100	273.76535	149.52516	146.65906	
565	5.640	273.42883	149.82076	292.85300	273.77374	149.52113	146.65762	
566	5.650	273.45117	149.81947	292.84015	273.76535	149.52516	146.65906	
567	5.660	273.44180	149.81944	292.84637	273.76907	149.52740	146.65863	
568	5.670	273.47131	149.81470	292.83392	273.78079	149.52989	146.65706	
569	5.680	273.43988	149.82216	292.84360	273.78445	149.53212	146.65665	
570	5.690	273.49048	149.81345	292.82312	273.81400	149.53413	146.64319	
571	5.700	273.49811	149.81342	292.81812	273.80902	149.52438	146.65268	
572	5.710	273.45456	149.81876	292.83896	273.81604	149.53307	146.65213	
573	5.720	273.47925	149.81517	292.82797	273.80606	149.53383	146.65359	
574	5.730	273.49829	149.81244	292.81946	273.80353	149.53908	146.65425	
575	5.740	273.46698	149.81647	292.83417	273.80029	149.53261	146.65437	
576	5.750	273.48486	149.81430	292.82556	273.77792	149.51913	146.65691	
577	5.760	273.48691	149.81514	292.82297	273.77750	149.52049	146.65572	
578	5.770	273.48383	149.81389	292.82687	273.77655	149.53192	146.65779	
579	5.780	273.45374	149.81540	292.84454	273.78207	149.51714	146.65620	
580	5.790	273.44379	149.82315	292.83951	273.76749	149.52415	146.65868	
581	5.800	273.41861	149.82503	292.85339	273.79453	149.51117	146.65408	
582	5.810	273.41180	149.82454	292.85864	273.79242	149.51216	146.65445	
583	5.820	273.42761	149.82251	292.85123	273.79822	149.53360	146.65474	
584	5.830	273.45456	149.81876	292.83896	273.81805	149.53209	146.65178	
585	5.840	273.43539	149.82341	292.84470	273.78003	149.51813	146.65654	
586	5.850	273.46146	149.81635	292.83798	273.78003	149.51813	146.65654	
587	5.860	273.48706	149.81416	292.82431	273.77655	149.53192	146.65779	
588	5.870	273.45679	149.81862	292.83771	273.79407	149.53561	146.65543	
589	5.880	273.50494	149.81198	292.81573	273.78830	149.51414	146.65515	
590	5.890	273.49829	149.81244	292.81946	273.81021	149.53183	146.65289	
591	5.900	273.44775	149.82019	292.84134	273.78003	149.51813	146.65654	
592	5.910	273.44556	149.82033	292.84259	273.76535	149.52516	146.65906	
593	5.920	273.49170	149.81287	292.82318	273.79037	149.51315	146.65479	
594	5.930	273.44101	149.82161	292.84369	273.78418	149.51613	146.65584	
595	5.940	273.43320	149.82262	292.84735	273.78165	149.52138	146.65648	
596	5.950	273.48172	149.81268	292.83008	273.79611	149.53461	146.65509	
597	5.960	273.44785	149.81921	292.84274	273.80673	149.54553	146.65413	
598	5.970	273.49033	149.81442	292.82178	273.77542	149.52438	146.65755	
599	5.980	273.48947	149.81302	292.82440	273.78824	149.53438	146.65622	
600	5.990	273.44418	149.82469	292.83694	273.78772	149.53865	146.65652	
601	6.000	273.47256	149.81561	292.83173	273.78024	149.53413	146.65738	
602	6.010	273.50494	149.81198	292.81573	273.76535	149.52516	146.65906	
603	6.020	273.47144	149.81616	292.83167	273.76535	149.52516	146.65906	
604	6.030	273.46997	149.81868	292.82886	273.78024	149.53413	146.65738	
605	6.040	273.48114	149.81697	292.82404	273.80099	149.54160	146.64406	
606	6.050	273.48468	149.81529	292.82419	273.76535	149.52516	146.65906	
607	6.060	273.39899	149.82716	292.86319	273.79037	149.51315	146.65479	
608	6.070	273.45142	149.81653	292.84436	273.78659	149.53110	146.65628	
609	6.080	273.42532	149.82266	292.85248	273.79614	149.51440	146.65402	
610	6.090	273.44968	149.81844	292.84268	273.80231	149.51144	146.65298	
611	6.100	273.42166	149.82289	292.85458	273.80319	149.52312	146.65347	
612	6.110	273.49393	149.81273	292.82193	273.80353	149.53908	146.65425	
613	6.120	273.49170	149.81287	292.82318	273.79889	149.54247	146.65378	
614	6.130	273.48502	149.81332	292.82690	273.77792	149.51913	146.65691	
615	6.140	273.49130	149.81485	292.82050	273.82172	149.53429	146.65138	
616	6.150	273.48453	149.81627	292.82285	273.79935	149.54109	146.65495	
617	6.160	273.49393	149.81273	292.82193	273.80939	149.53743	146.65198	
618	6.170	273.49811	149.81342	292.81812	273.77585	149.52013	146.65726	
619	6.180	273.48486	149.81430	292.82556	273.78751	149.52264	146.65570	
620	6.190	273.47586	149.81587	292.82916	273.77283	149.52968	146.65822	
621	6.200	273.46146	149.81635	292.83798	273.80988	149.55199	146.65404	
622	6.210	273.44434	149.82280	292.83969	273.80148	149.54007	146.65459	
623	6.220	273.40634	149.82457	292.86221	273.77496	149.52866	146.65784	
624	6.230	273.43497	149.82184	292.84732	273.77585	149.52013	146.65726	
625	6.240	273.41742	149.82368	292.85620	273.76749	149.52415	146.65868	
626	6.250	273.46802	149.81688	292.83286	273.77374	149.52113	146.65762	
627	6.260	273.46582	149.81703	292.83411	273.77170	149.52214	146.65796	
628	6.270	273.48029	149.81558	292.82669	273.79611	149.53461	146.65509	
629	6.280	273.47101	149.81909	292.82758	273.79037	149.51315	146.65479	
630	6.290	273.47794	149.81670	292.82657	273.82751	149.53554	146.65059	
631	6.300	273.48285	149.81346	292.82816	273.80023	149.51244	146.65334	
632	6.310	273.50494	149.81198	292.81573	273.84390	149.54477	146.64742	
633	6.320	273.49472	149.81413	292.81931	273.79907	149.52510	146.65416	
634	6.330	273.44662	149.82074	292.84125	273.81796	149.51204	146.65076	
635	6.340	273.48502	149.81332	292.82690	273.80563	149.53807	146.65390	
636	6.350	273.45001	149.82002	292.84006	273.77585	149.52013	146.65726	
637	6.360	273.46121	149.81586	292.83890	273.79193	149.53662	146.65579	
638	6.370	273.46127	149.81830	292.83521	273.80814	149.53284	146.65324	
